<svg width="512" height="512" viewBox="0 0 512 512" fill="none" xmlns="http://www.w3.org/2000/svg">
<g clip-path="url(#clip0_70_12)">
<path d="M362.667 256C362.667 273.664 348.352 288 330.667 288H288V330.667C288 348.331 273.685 362.667 256 362.667C238.315 362.667 224 348.331 224 330.667V288H181.333C163.648 288 149.333 273.664 149.333 256C149.333 238.336 163.648 224 181.333 224H224V181.333C224 163.669 238.315 149.333 256 149.333C273.685 149.333 288 163.669 288 181.333V224H330.667C348.352 224 362.667 238.336 362.667 256ZM512 117.333V394.667C512 459.349 459.371 512 394.667 512H117.333C52.6293 512 0 459.349 0 394.667V117.333C0 52.6507 52.6293 0 117.333 0H394.667C459.371 0 512 52.6507 512 117.333ZM448 117.333C448 87.9147 424.064 64 394.667 64H117.333C87.936 64 64 87.9147 64 117.333V394.667C64 424.085 87.936 448 117.333 448H394.667C424.064 448 448 424.085 448 394.667V117.333Z" fill="#99A1AF"/>
</g>
<defs>
<clipPath id="clip0_70_12">
<rect width="512" height="512" fill="white"/>
</clipPath>
</defs>
</svg>
