<svg width="512" height="512" viewBox="0 0 512 512" fill="none" xmlns="http://www.w3.org/2000/svg">
<g clip-path="url(#clip0_69_10)">
<path d="M160 277.333C141.013 277.333 122.452 271.703 106.665 261.154C90.8781 250.606 78.5736 235.613 71.3076 218.071C64.0416 200.529 62.1404 181.227 65.8446 162.605C69.5488 143.983 78.6919 126.877 92.1177 113.451C105.544 100.025 122.649 90.8822 141.271 87.178C159.894 83.4738 179.196 85.3749 196.738 92.6409C214.279 99.907 229.272 112.212 239.821 127.999C250.37 143.786 256 162.346 256 181.333C255.972 206.785 245.848 231.187 227.851 249.184C209.854 267.182 185.452 277.305 160 277.333ZM160 149.333C153.671 149.333 147.484 151.21 142.222 154.726C136.959 158.243 132.858 163.24 130.436 169.088C128.014 174.935 127.38 181.369 128.615 187.576C129.85 193.784 132.897 199.486 137.373 203.961C141.848 208.436 147.55 211.484 153.757 212.719C159.965 213.953 166.399 213.32 172.246 210.898C178.093 208.476 183.091 204.374 186.607 199.112C190.123 193.849 192 187.662 192 181.333C192 172.846 188.629 164.707 182.627 158.706C176.626 152.705 168.487 149.333 160 149.333ZM320 437.333C319.966 406.225 307.593 376.401 285.596 354.404C263.6 332.407 233.775 320.034 202.667 320H117.333C86.225 320.034 56.4005 332.407 34.4036 354.404C12.4066 376.401 0.033881 406.225 0 437.333L0 512H64V437.333C64 423.189 69.619 409.623 79.621 399.621C89.6229 389.619 103.188 384 117.333 384H202.667C209.671 384 216.606 385.38 223.076 388.06C229.547 390.74 235.427 394.669 240.379 399.621C245.331 404.573 249.26 410.453 251.94 416.924C254.621 423.394 256 430.33 256 437.333V512H320V437.333ZM373.333 192C354.346 192 335.786 186.37 319.999 175.821C304.211 165.273 291.907 150.279 284.641 132.738C277.375 115.196 275.474 95.8935 279.178 77.2714C282.882 58.6492 292.025 41.5436 305.451 28.1178C318.877 14.692 335.982 5.54884 354.605 1.84466C373.227 -1.85952 392.529 0.0415955 410.071 7.30761C427.613 14.5736 442.606 26.8782 453.154 42.6653C463.703 58.4524 469.333 77.013 469.333 96C469.305 121.452 459.182 145.854 441.184 163.851C423.187 181.848 398.785 191.972 373.333 192ZM373.333 64C367.004 64 360.817 65.8768 355.555 69.393C350.293 72.9092 346.191 77.9069 343.769 83.7542C341.347 89.6014 340.713 96.0355 341.948 102.243C343.183 108.45 346.231 114.152 350.706 118.627C355.181 123.103 360.883 126.15 367.09 127.385C373.298 128.62 379.732 127.986 385.579 125.564C391.426 123.142 396.424 119.041 399.94 113.778C403.457 108.516 405.333 102.329 405.333 96C405.333 87.5131 401.962 79.3738 395.961 73.3726C389.96 67.3715 381.82 64 373.333 64ZM512 352C511.966 320.892 499.593 291.067 477.596 269.07C455.6 247.073 425.775 234.701 394.667 234.667H320V298.667H394.667C408.812 298.667 422.377 304.286 432.379 314.288C442.381 324.29 448 337.855 448 352V426.667H512V352Z" fill="#99A1AF"/>
</g>
<defs>
<clipPath id="clip0_69_10">
<rect width="512" height="512" fill="white"/>
</clipPath>
</defs>
</svg>
