<?xml version="1.0"?>
<svg width="24" height="24" xmlns="http://www.w3.org/2000/svg" xmlns:svg="http://www.w3.org/2000/svg" data-name="Layer 1">
 <g class="layer">
  <title>Layer 1</title>
  <path d="m7.5,13a4.5,4.5 0 1 1 4.5,-4.5a4.5,4.5 0 0 1 -4.5,4.5zm0,-6a1.5,1.5 0 1 0 1.5,1.5a1.5,1.5 0 0 0 -1.5,-1.5zm7.5,15.5a7.5,7.5 0 0 0 -15,0a1.5,1.5 0 0 0 3,0a4.5,4.5 0 0 1 9,0a1.5,1.5 0 0 0 3,0zm9,-4.5a7,7 0 0 0 -11.46,-5.4a1.5,1.5 0 1 0 1.92,2.31a3.95,3.95 0 0 1 2.54,-0.91a4,4 0 0 1 4,4a1.5,1.5 0 0 0 3,0zm-6.5,-9a4.5,4.5 0 1 1 4.5,-4.5a4.5,4.5 0 0 1 -4.5,4.5zm0,-6a1.5,1.5 0 1 0 1.5,1.5a1.5,1.5 0 0 0 -1.5,-1.5z" fill="#4a5565" id="svg_1"/>
 </g>
</svg>