<svg width="512" height="512" viewBox="0 0 512 512" fill="none" xmlns="http://www.w3.org/2000/svg">
<path d="M486.912 25.088C470.606 9.50721 448.921 0.8125 426.368 0.8125C403.815 0.8125 382.13 9.50721 365.824 25.088L34.3678 356.544C23.4433 367.409 14.781 380.331 8.88185 394.564C2.98274 408.798 -0.0361273 424.059 -0.000170829 439.467V480C-0.000170829 488.487 3.37125 496.626 9.37241 502.627C15.3736 508.629 23.5129 512 31.9998 512H72.5332C87.9476 512.042 103.217 509.025 117.458 503.126C131.699 497.227 144.629 488.562 155.498 477.632L486.912 146.176C502.946 130.106 511.951 108.333 511.951 85.632C511.951 62.9313 502.946 41.1576 486.912 25.088ZM110.208 432.384C100.189 442.337 86.6555 447.947 72.5332 448H63.9998V439.467C64.0436 425.33 69.6539 411.78 79.6158 401.749L326.4 155.029L356.971 185.6L110.208 432.384ZM441.6 100.928L402.219 140.373L371.627 109.781L411.093 70.4C415.21 66.4657 420.684 64.2701 426.379 64.2701C432.073 64.2701 437.547 66.4657 441.664 70.4C445.687 74.4653 447.939 79.9574 447.927 85.6772C447.915 91.3969 445.64 96.8795 441.6 100.928Z" fill="#99A1AF"/>
</svg>
