<svg width="512" height="512" viewBox="0 0 512 512" fill="none" xmlns="http://www.w3.org/2000/svg">
<g clip-path="url(#clip0_70_14)">
<path d="M236.587 206.357L305.92 275.691L224.683 356.928C207.339 374.272 183.829 384 159.317 384H138.944C133.056 384 128.277 379.221 128.277 373.333V352.96C128.277 328.448 138.027 304.917 155.349 287.595L236.587 206.357ZM300.587 142.357L281.835 161.109L351.168 230.443L367.936 213.675C386.069 195.541 389.547 165.973 373.312 146.112C354.645 123.285 320.917 122.027 300.587 142.357ZM512 117.333V394.667C512 459.349 459.371 512 394.667 512H117.333C52.6293 512 0 459.349 0 394.667V117.333C0 52.6507 52.6293 0 117.333 0H394.667C459.371 0 512 52.6507 512 117.333ZM448 117.333C448 87.9147 424.064 64 394.667 64H117.333C87.936 64 64 87.9147 64 117.333V394.667C64 424.085 87.936 448 117.333 448H394.667C424.064 448 448 424.085 448 394.667V117.333Z" fill="#99A1AF"/>
</g>
<defs>
<clipPath id="clip0_70_14">
<rect width="512" height="512" fill="white"/>
</clipPath>
</defs>
</svg>
