<svg width="470" height="512" viewBox="0 0 470 512" fill="none" xmlns="http://www.w3.org/2000/svg">
<path d="M469.667 96C469.667 78.327 455.34 64 437.667 64H357.112C343.632 25.757 307.549 0.13 267 0H203C162.451 0.13 126.368 25.757 112.888 64H32.333C14.66 64 0.333008 78.327 0.333008 96C0.333008 113.673 14.66 128 32.333 128H43V394.667C43 459.468 95.532 512 160.333 512H309.666C374.468 512 427 459.468 427 394.667V128H437.667C455.34 128 469.667 113.673 469.667 96ZM363 394.667C363 424.122 339.122 448 309.667 448H160.333C130.878 448 107 424.122 107 394.667V128H363V394.667Z" fill="white"/>
<path d="M181.667 384C199.34 384 213.667 369.673 213.667 352V224C213.667 206.327 199.34 192 181.667 192C163.994 192 149.667 206.327 149.667 224V352C149.667 369.673 163.994 384 181.667 384Z" fill="white"/>
<path d="M288.333 384C306.006 384 320.333 369.673 320.333 352V224C320.333 206.327 306.006 192 288.333 192C270.66 192 256.333 206.327 256.333 224V352C256.333 369.673 270.66 384 288.333 384Z" fill="white"/>
</svg>
