<svg width="175" height="320" viewBox="0 0 175 320" fill="none" xmlns="http://www.w3.org/2000/svg">
<path d="M67.076 167.555C66.0826 166.564 65.2945 165.387 64.7568 164.091C64.219 162.795 63.9422 161.406 63.9422 160.003C63.9422 158.6 64.219 157.21 64.7568 155.915C65.2945 154.619 66.0826 153.442 67.076 152.451L164.911 54.6374C170.914 48.6371 174.287 40.4979 174.289 32.0102C174.291 23.5226 170.922 15.3818 164.921 9.3787C158.921 3.37562 150.782 0.00200134 142.294 8.90157e-07C133.807 -0.00199956 125.666 3.36779 119.663 9.36804L21.828 107.203C7.8497 121.219 0 140.207 0 160.003C0 179.798 7.8497 198.786 21.828 212.803L119.663 310.637C125.666 316.638 133.807 320.007 142.294 320.005C150.782 320.003 158.921 316.63 164.921 310.627C170.922 304.624 174.291 296.483 174.289 287.995C174.287 279.508 170.914 271.368 164.911 265.368L67.076 167.555Z" fill="white"/>
</svg>
